<mxfile host="65bd71144e">
    <diagram id="C5RBs43oDa-KdzZeNtuy" name="Page-1">
        <mxGraphModel dx="636" dy="284" grid="1" gridSize="10" guides="1" tooltips="1" connect="1" arrows="1" fold="1" page="1" pageScale="1" pageWidth="827" pageHeight="1169" math="0" shadow="0">
            <root>
                <mxCell id="WIyWlLk6GJQsqaUBKTNV-0"/>
                <mxCell id="WIyWlLk6GJQsqaUBKTNV-1" parent="WIyWlLk6GJQsqaUBKTNV-0"/>
                <mxCell id="zuTQzKUe-VPVfcQqOjv3-0" value="Итоговая проверочная работа" style="text;html=1;align=center;verticalAlign=middle;resizable=0;points=[];autosize=1;strokeColor=none;fillColor=none;" parent="WIyWlLk6GJQsqaUBKTNV-1" vertex="1">
                    <mxGeometry x="40" width="190" height="30" as="geometry"/>
                </mxCell>
                <mxCell id="zuTQzKUe-VPVfcQqOjv3-3" value="" style="edgeStyle=orthogonalEdgeStyle;rounded=0;orthogonalLoop=1;jettySize=auto;html=1;" parent="WIyWlLk6GJQsqaUBKTNV-1" source="zuTQzKUe-VPVfcQqOjv3-1" target="zuTQzKUe-VPVfcQqOjv3-2" edge="1">
                    <mxGeometry relative="1" as="geometry"/>
                </mxCell>
                <mxCell id="zuTQzKUe-VPVfcQqOjv3-1" value="Start" style="ellipse;whiteSpace=wrap;html=1;" parent="WIyWlLk6GJQsqaUBKTNV-1" vertex="1">
                    <mxGeometry x="90" y="40" width="120" height="40" as="geometry"/>
                </mxCell>
                <mxCell id="zuTQzKUe-VPVfcQqOjv3-5" value="" style="edgeStyle=orthogonalEdgeStyle;rounded=0;orthogonalLoop=1;jettySize=auto;html=1;" parent="WIyWlLk6GJQsqaUBKTNV-1" source="zuTQzKUe-VPVfcQqOjv3-2" target="zuTQzKUe-VPVfcQqOjv3-4" edge="1">
                    <mxGeometry relative="1" as="geometry"/>
                </mxCell>
                <mxCell id="zuTQzKUe-VPVfcQqOjv3-2" value="array&lt;br&gt;newArray" style="shape=parallelogram;perimeter=parallelogramPerimeter;whiteSpace=wrap;html=1;fixedSize=1;" parent="WIyWlLk6GJQsqaUBKTNV-1" vertex="1">
                    <mxGeometry x="90" y="110" width="120" height="60" as="geometry"/>
                </mxCell>
                <mxCell id="zuTQzKUe-VPVfcQqOjv3-8" value="" style="edgeStyle=orthogonalEdgeStyle;rounded=0;orthogonalLoop=1;jettySize=auto;html=1;" parent="WIyWlLk6GJQsqaUBKTNV-1" source="zuTQzKUe-VPVfcQqOjv3-4" edge="1">
                    <mxGeometry relative="1" as="geometry">
                        <mxPoint x="150" y="280" as="targetPoint"/>
                    </mxGeometry>
                </mxCell>
                <mxCell id="zuTQzKUe-VPVfcQqOjv3-4" value="count=0" style="rounded=0;whiteSpace=wrap;html=1;" parent="WIyWlLk6GJQsqaUBKTNV-1" vertex="1">
                    <mxGeometry x="90" y="200" width="120" height="60" as="geometry"/>
                </mxCell>
                <mxCell id="zuTQzKUe-VPVfcQqOjv3-13" value="" style="edgeStyle=orthogonalEdgeStyle;rounded=0;orthogonalLoop=1;jettySize=auto;html=1;startArrow=none;" parent="WIyWlLk6GJQsqaUBKTNV-1" source="zuTQzKUe-VPVfcQqOjv3-14" target="zuTQzKUe-VPVfcQqOjv3-12" edge="1">
                    <mxGeometry relative="1" as="geometry">
                        <Array as="points">
                            <mxPoint x="155" y="530"/>
                            <mxPoint x="155" y="530"/>
                        </Array>
                    </mxGeometry>
                </mxCell>
                <mxCell id="zuTQzKUe-VPVfcQqOjv3-9" value="array.Length&amp;lt;=3" style="rhombus;whiteSpace=wrap;html=1;" parent="WIyWlLk6GJQsqaUBKTNV-1" vertex="1">
                    <mxGeometry x="100" y="420" width="110" height="80" as="geometry"/>
                </mxCell>
                <mxCell id="zuTQzKUe-VPVfcQqOjv3-10" value="" style="endArrow=classic;html=1;rounded=0;exitX=0;exitY=0.5;exitDx=0;exitDy=0;entryX=0;entryY=0.5;entryDx=0;entryDy=0;" parent="WIyWlLk6GJQsqaUBKTNV-1" target="zuTQzKUe-VPVfcQqOjv3-9" edge="1">
                    <mxGeometry width="50" height="50" relative="1" as="geometry">
                        <mxPoint x="90" y="320" as="sourcePoint"/>
                        <mxPoint x="280" y="380" as="targetPoint"/>
                        <Array as="points">
                            <mxPoint x="70" y="320"/>
                            <mxPoint x="70" y="400"/>
                            <mxPoint x="70" y="460"/>
                        </Array>
                    </mxGeometry>
                </mxCell>
                <mxCell id="zuTQzKUe-VPVfcQqOjv3-11" value="Yes" style="edgeLabel;html=1;align=center;verticalAlign=middle;resizable=0;points=[];" parent="zuTQzKUe-VPVfcQqOjv3-10" vertex="1" connectable="0">
                    <mxGeometry x="-0.146" y="-1" relative="1" as="geometry">
                        <mxPoint as="offset"/>
                    </mxGeometry>
                </mxCell>
                <mxCell id="zuTQzKUe-VPVfcQqOjv3-12" value="newArray[i]=array[i]&lt;br&gt;count++" style="rounded=0;whiteSpace=wrap;html=1;" parent="WIyWlLk6GJQsqaUBKTNV-1" vertex="1">
                    <mxGeometry x="95" y="560" width="120" height="60" as="geometry"/>
                </mxCell>
                <mxCell id="zuTQzKUe-VPVfcQqOjv3-15" value="" style="edgeStyle=orthogonalEdgeStyle;rounded=0;orthogonalLoop=1;jettySize=auto;html=1;endArrow=none;" parent="WIyWlLk6GJQsqaUBKTNV-1" source="zuTQzKUe-VPVfcQqOjv3-9" target="zuTQzKUe-VPVfcQqOjv3-14" edge="1">
                    <mxGeometry relative="1" as="geometry">
                        <mxPoint x="155" y="500" as="sourcePoint"/>
                        <mxPoint x="155" y="560" as="targetPoint"/>
                        <Array as="points"/>
                    </mxGeometry>
                </mxCell>
                <mxCell id="zuTQzKUe-VPVfcQqOjv3-14" value="Yes" style="text;html=1;align=center;verticalAlign=middle;resizable=0;points=[];autosize=1;strokeColor=none;fillColor=none;" parent="WIyWlLk6GJQsqaUBKTNV-1" vertex="1">
                    <mxGeometry x="135" y="510" width="40" height="30" as="geometry"/>
                </mxCell>
                <mxCell id="zuTQzKUe-VPVfcQqOjv3-16" value="" style="endArrow=classic;html=1;rounded=0;exitX=1;exitY=0.5;exitDx=0;exitDy=0;entryX=0.5;entryY=1;entryDx=0;entryDy=0;" parent="WIyWlLk6GJQsqaUBKTNV-1" source="zuTQzKUe-VPVfcQqOjv3-9" target="zuTQzKUe-VPVfcQqOjv3-25" edge="1">
                    <mxGeometry width="50" height="50" relative="1" as="geometry">
                        <mxPoint x="230" y="420" as="sourcePoint"/>
                        <mxPoint x="180" y="360" as="targetPoint"/>
                        <Array as="points">
                            <mxPoint x="240" y="460"/>
                            <mxPoint x="240" y="360"/>
                        </Array>
                    </mxGeometry>
                </mxCell>
                <mxCell id="zuTQzKUe-VPVfcQqOjv3-17" value="No" style="edgeLabel;html=1;align=center;verticalAlign=middle;resizable=0;points=[];" parent="zuTQzKUe-VPVfcQqOjv3-16" vertex="1" connectable="0">
                    <mxGeometry x="-0.3482" relative="1" as="geometry">
                        <mxPoint x="-20" y="28" as="offset"/>
                    </mxGeometry>
                </mxCell>
                <mxCell id="zuTQzKUe-VPVfcQqOjv3-19" value="" style="endArrow=none;html=1;rounded=0;exitX=1;exitY=0.5;exitDx=0;exitDy=0;" parent="WIyWlLk6GJQsqaUBKTNV-1" source="zuTQzKUe-VPVfcQqOjv3-12" edge="1">
                    <mxGeometry width="50" height="50" relative="1" as="geometry">
                        <mxPoint x="230" y="420" as="sourcePoint"/>
                        <mxPoint x="240" y="460" as="targetPoint"/>
                        <Array as="points">
                            <mxPoint x="240" y="590"/>
                        </Array>
                    </mxGeometry>
                </mxCell>
                <mxCell id="zuTQzKUe-VPVfcQqOjv3-21" value="newArray" style="shape=parallelogram;perimeter=parallelogramPerimeter;whiteSpace=wrap;html=1;fixedSize=1;" parent="WIyWlLk6GJQsqaUBKTNV-1" vertex="1">
                    <mxGeometry x="90" y="650" width="120" height="60" as="geometry"/>
                </mxCell>
                <mxCell id="zuTQzKUe-VPVfcQqOjv3-22" value="End" style="ellipse;whiteSpace=wrap;html=1;" parent="WIyWlLk6GJQsqaUBKTNV-1" vertex="1">
                    <mxGeometry x="90" y="740" width="120" height="80" as="geometry"/>
                </mxCell>
                <mxCell id="zuTQzKUe-VPVfcQqOjv3-23" value="" style="endArrow=classic;html=1;rounded=0;exitX=1;exitY=0.5;exitDx=0;exitDy=0;entryX=1;entryY=0.5;entryDx=0;entryDy=0;" parent="WIyWlLk6GJQsqaUBKTNV-1" target="zuTQzKUe-VPVfcQqOjv3-22" edge="1">
                    <mxGeometry width="50" height="50" relative="1" as="geometry">
                        <mxPoint x="210" y="320" as="sourcePoint"/>
                        <mxPoint x="280" y="580" as="targetPoint"/>
                        <Array as="points">
                            <mxPoint x="280" y="320"/>
                            <mxPoint x="280" y="780"/>
                        </Array>
                    </mxGeometry>
                </mxCell>
                <mxCell id="zuTQzKUe-VPVfcQqOjv3-25" value="i=0; i&amp;lt;array.Length; i++" style="rhombus;whiteSpace=wrap;html=1;" parent="WIyWlLk6GJQsqaUBKTNV-1" vertex="1">
                    <mxGeometry x="80" y="280" width="150" height="80" as="geometry"/>
                </mxCell>
            </root>
        </mxGraphModel>
    </diagram>
</mxfile>